<svg xmlns="http://www.w3.org/2000/svg" version="1.1" xmlns:xlink="http://www.w3.org/1999/xlink" xmlns:svgjs="http://svgjs.dev/svgjs" width="1000" height="232" viewBox="0 0 1000 232"><g transform="matrix(1,0,0,1,-0.6060606060606801,-0.35840854495232577)"><svg viewBox="0 0 396 92" data-background-color="#ffffff" preserveAspectRatio="xMidYMid meet" height="232" width="1000" xmlns="http://www.w3.org/2000/svg" xmlns:xlink="http://www.w3.org/1999/xlink"><g id="tight-bounds" transform="matrix(1,0,0,1,0.24000000000003752,0.14212752644661464)"><svg viewBox="0 0 395.5199999999999 91.71574494710676" height="91.71574494710676" width="395.5199999999999"><g><svg viewBox="0 0 553.6918921833717 128.39367001105143" height="91.71574494710676" width="395.5199999999999"><g><rect width="4.775516737962362" height="111.4850969705222" x="140.89502272823037" y="8.45428652026461" fill="#0074d9" opacity="1" stroke-width="0" stroke="transparent" fill-opacity="1" class="rect-o-0" data-fill-palette-color="primary" rx="1%" id="o-0" data-palette-color="#0074d9"></rect></g><g transform="matrix(1,0,0,1,158.17189218337168,17.74471126780813)"><svg viewBox="0 0 395.52 92.90424747543517" height="92.90424747543517" width="395.52"><g id="textblocktransform"><svg viewBox="0 0 395.52 92.90424747543517" height="92.90424747543517" width="395.52" id="textblock"><g><svg viewBox="0 0 395.52 52.95478031303036" height="52.95478031303036" width="395.52"><g transform="matrix(1,0,0,1,0,0)"><svg width="395.52" viewBox="3.0999999046325684 -34.900001525878906 265.1300048828125 35.5" height="52.95478031303036" data-palette-color="#0074d9"><path d="M3.1 0L3.1-34.3 9.8-34.3 15.85-11.8Q16.45-9.4 17-4.1L17-4.1 17.2-4.1Q17.7-9.5 18.3-11.8L18.3-11.8 24.4-34.3 31.05-34.3 31.05 0 26.65 0 26.65-24.9Q26.65-26.05 27-30.2L27-30.2 26.8-30.2Q26-26.05 25.65-24.9L25.65-24.9 18.8 0 14.85 0 8-24.9Q7.75-25.8 6.95-30.2L6.95-30.2 6.75-30.2Q7.05-25.85 7.05-24.9L7.05-24.9 7.05 0 3.1 0ZM50.1 0.6Q43.7 0.6 40.15-3.9 36.6-8.4 36.6-17.15L36.6-17.15Q36.6-25.9 40.15-30.4 43.7-34.9 50.1-34.9L50.1-34.9Q56.5-34.9 60.05-30.4 63.6-25.9 63.6-17.15L63.6-17.15Q63.6-8.4 60.05-3.9 56.5 0.6 50.1 0.6L50.1 0.6ZM50.1-3.45Q54.3-3.45 56.65-6.6 59-9.75 59-15.9L59-15.9 59-18.4Q59-24.55 56.65-27.7 54.3-30.85 50.1-30.85L50.1-30.85Q45.9-30.85 43.55-27.7 41.2-24.55 41.2-18.4L41.2-18.4 41.2-15.9Q41.2-9.75 43.55-6.6 45.9-3.45 50.1-3.45L50.1-3.45ZM76.9 0L66.45-34.3 71.3-34.3 79.8-4.85 80-4.85 88.75-34.3 93-34.3 82.55 0 76.9 0ZM96.89 0L96.89-34.3 101.29-34.3 101.29 0 96.89 0ZM108.29 0L108.29-34.3 129.44-34.3 129.44-30.3 112.69-30.3 112.69-19.55 127.24-19.55 127.24-15.55 112.69-15.55 112.69-4 129.74-4 129.74 0 108.29 0ZM135.24 0L135.24-34.3 141.94-34.3 147.99-11.8Q148.59-9.4 149.14-4.1L149.14-4.1 149.34-4.1Q149.84-9.5 150.44-11.8L150.44-11.8 156.54-34.3 163.19-34.3 163.19 0 158.79 0 158.79-24.9Q158.79-26.05 159.14-30.2L159.14-30.2 158.94-30.2Q158.14-26.05 157.79-24.9L157.79-24.9 150.94 0 146.99 0 140.14-24.9Q139.89-25.8 139.09-30.2L139.09-30.2 138.89-30.2Q139.19-25.85 139.19-24.9L139.19-24.9 139.19 0 135.24 0ZM166.24 0L177.14-34.3 182.79-34.3 193.69 0 188.94 0 186.59-7.65 172.99-7.65 170.64 0 166.24 0ZM174.19-11.65L185.34-11.65 180.69-26.9Q180.34-28 179.89-30.7L179.89-30.7 179.69-30.7Q179.24-27.95 178.89-26.9L178.89-26.9 174.19-11.65ZM200.93 0L200.93-30.3 191.58-30.3 191.58-34.3 214.68-34.3 214.68-30.3 205.33-30.3 205.33 0 200.93 0ZM219.18 0L219.18-34.3 240.33-34.3 240.33-30.3 223.58-30.3 223.58-19.55 238.13-19.55 238.13-15.55 223.58-15.55 223.58-4 240.63-4 240.63 0 219.18 0ZM256.63 0.6Q251.53 0.6 248.3-1.9 245.08-4.4 245.08-9.7L245.08-9.7 245.13-10.7 249.68-10.7 249.63-9.65Q249.63-6.6 251.5-5.03 253.38-3.45 256.43-3.45L256.43-3.45Q259.88-3.45 261.75-4.93 263.63-6.4 263.63-9.15L263.63-9.15Q263.63-11 262.6-12.18 261.58-13.35 260.05-14.05 258.53-14.75 255.88-15.6L255.88-15.6Q252.63-16.7 250.63-17.7 248.63-18.7 247.2-20.63 245.78-22.55 245.78-25.7L245.78-25.7Q245.78-30.2 248.83-32.55 251.88-34.9 256.68-34.9L256.68-34.9Q261.48-34.9 264.45-32.52 267.43-30.15 267.43-25.25L267.43-25.25 267.43-24.65 262.88-24.65 262.88-25.4Q262.88-27.95 261.15-29.4 259.43-30.85 256.78-30.85L256.78-30.85Q253.93-30.85 252.18-29.63 250.43-28.4 250.43-26.05L250.43-26.05Q250.43-24.3 251.43-23.18 252.43-22.05 253.93-21.38 255.43-20.7 258.03-19.85L258.03-19.85Q261.33-18.75 263.35-17.78 265.38-16.8 266.8-14.88 268.23-12.95 268.23-9.9L268.23-9.9Q268.23-4.4 265.1-1.9 261.98 0.6 256.63 0.6L256.63 0.6Z" opacity="1" transform="matrix(1,0,0,1,0,0)" fill="#0074d9" class="wordmark-text-0" data-fill-palette-color="primary" id="text-0"></path></svg></g></svg></g><g transform="matrix(1,0,0,1,0,65.45613303020932)"><svg viewBox="0 0 232.209792 27.44811444522586" height="27.44811444522586" width="232.209792"><g transform="matrix(1,0,0,1,0,0)"><svg width="232.209792" viewBox="0.7599999904632568 -38.9900016784668 451.25 53.35000228881836" height="27.44811444522586" data-palette-color="#0074d9"><path d="M0.76-34.69L1.05-35.25Q4.61-35.57 7.96-35.71 11.3-35.84 14.58-35.84L14.58-35.84Q17.85-35.84 21.68-35.68 25.51-35.52 30.05-35.21L30.05-35.21 30.35-34.69 28.05-28.76 27.25-29Q27.42-29.86 27.5-30.6 27.59-31.35 27.59-32.01L27.59-32.01Q27.59-32.91 27.44-33.64L27.44-33.64Q24.34-33.84 21.86-33.94 19.38-34.03 17.46-34.06L17.46-34.06 17.46-4.39Q17.46-3.39 17.64-2.69 17.82-1.98 18.26-1.49 18.7-1 19.43-0.7 20.17-0.39 21.29-0.2L21.29-0.2 21.09 0.39Q19.63 0.2 18.55 0.1 17.48 0 16.75 0L16.75 0Q16.06 0 15.22 0.1 14.38 0.2 13.35 0.39L13.35 0.39 13.21 0.15Q13.7-0.56 13.7-2.44L13.7-2.44 13.7-34.06Q11.84-34.03 9.35-33.94 6.86-33.84 3.66-33.64L3.66-33.64Q3.52-32.84 3.52-31.93L3.52-31.93Q3.52-30.64 3.86-29L3.86-29 3.05-28.76 0.76-34.69ZM36.74-2.44L36.74-18.09Q36.74-21.56 35.92-22.74 35.1-23.93 32.44-23.75L32.44-23.75 32.35-24.19Q36.37-25.39 39.74-25.39L39.74-25.39Q40.26-24.12 40.26-22.61L40.26-22.61 40.26-4.39Q40.26-2.47 41.16-1.54 42.06-0.61 44.36-0.2L44.36-0.2 44.16 0.39Q41.35 0 39.83 0 38.3 0 36.4 0.39L36.4 0.39 36.25 0.15Q36.74-0.56 36.74-2.44L36.74-2.44ZM34.25-34.45L34.25-34.45Q36.57-35.79 39.5-36.69L39.5-36.69Q39.5-34.67 40.16-32.69L40.16-32.69 39.84-32.25Q37.52-32.1 35.01-30.96L35.01-30.96Q34.4-32.64 34.25-34.45ZM59.64 1L59.64 1Q57.08 1 54.88-0.02 52.68-1.05 51.22-2.77 49.75-4.49 48.92-6.7 48.09-8.91 48.09-11.3L48.09-11.3Q48.09-14.72 49.09-17.43 50.09-20.14 51.87-21.86 53.66-23.58 56.04-24.49 58.42-25.39 61.25-25.39L61.25-25.39Q64.37-25.39 67.7-24.24L67.7-24.24 66.11-18.26 65.2-18.51Q65.47-21.07 65.06-22.9L65.06-22.9Q62.32-23.71 60.1-23.71L60.1-23.71Q55.81-23.71 53.85-20.91 51.9-18.12 51.9-12.65L51.9-12.65Q51.9-7.54 54.28-4.15 56.66-0.76 60.3-0.76L60.3-0.76Q64.81-0.76 67.65-3.59L67.65-3.59 68.65-2.54Q66.82-0.63 64.66 0.18 62.5 1 59.64 1ZM75.38-2.44L75.38-31.69Q75.38-35.16 74.57-36.34 73.75-37.52 71.09-37.35L71.09-37.35 70.99-37.79Q75.02-38.99 78.39-38.99L78.39-38.99Q78.9-37.72 78.9-36.21L78.9-36.21 78.9-4.39Q78.9-2.47 79.8-1.54 80.71-0.61 83-0.2L83-0.2 82.81 0.39Q80 0 78.29 0L78.29 0Q76.95 0 75.04 0.39L75.04 0.39 74.89 0.15Q75.38-0.56 75.38-2.44L75.38-2.44ZM89.89-1.15L89.89-1.15 80.85-13.04 80.85-13.6 89.89-22.71Q90.57-23.46 89.37-23.85L89.37-23.85Q88.3-24.22 86.3-24.05L86.3-24.05 86.15-24.66Q89.27-25.29 93.4-25.39L93.4-25.39 93.79-24.66 83.64-14.5Q93.11-2.61 94.21-1.82 95.31-1.03 96.94-0.66L96.94-0.66 96.89 0.1Q92.89-0.2 90.84 0.39L90.84 0.39 90.5 0.2Q90.54-0.34 89.89-1.15ZM99.94-11.89L99.94-11.89Q99.94-14.48 100.8-16.91 101.65-19.34 103.24-21.23 104.82-23.12 107.08-24.26 109.34-25.39 112.15-25.39L112.15-25.39Q113.91-25.39 115.47-24.79 117.03-24.19 118.19-22.94 119.35-21.68 120.02-19.71 120.69-17.75 120.69-15.04L120.69-15.04 119.74-14.16 103.8-14.16Q103.75-13.75 103.75-13.35 103.75-12.96 103.75-12.57L103.75-12.57Q103.75-9.91 104.37-7.74 104.99-5.57 106.06-4.02 107.12-2.47 108.56-1.61 110-0.76 111.61-0.76L111.61-0.76Q112.64-0.76 113.7-0.92 114.76-1.07 115.77-1.42 116.79-1.76 117.74-2.29 118.69-2.83 119.5-3.59L119.5-3.59 120.5-2.54Q118.57-0.63 116.3 0.18 114.03 1 111.05 1L111.05 1Q108.71 1 106.67 0.1 104.63-0.81 103.14-2.49 101.65-4.17 100.8-6.56 99.94-8.94 99.94-11.89ZM111.61-23.71L111.61-23.71Q107.83-23.71 106.07-21.74 104.31-19.78 103.95-16.09L103.95-16.09 117.54-16.09Q117.35-20.09 115.75-21.9 114.15-23.71 111.61-23.71ZM132.6-22.61L132.6-6.74Q132.6-3.42 133.34-2.16 134.07-0.9 135.71-0.9L135.71-0.9Q137.49-0.9 140.05-2.25L140.05-2.25 140.81-1.2Q136.78 1 134.22 1L134.22 1Q132.85 1 131.99 0.76 131.14 0.51 130.43-0.2 129.72-0.9 129.42-2.28 129.11-3.66 129.11-5.86L129.11-5.86 129.11-22.41 125.45-22.19 125.45-23.75Q127.38-24.17 129.11-24.29L129.11-24.29 129.11-27.76Q131.19-28.93 132.51-31.1L132.51-31.1 133.26-30.81Q132.85-29.83 132.73-28.6 132.6-27.37 132.6-24.44L132.6-24.44 141-24.44 141-23.58Q139.98-23.17 138.93-22.89 137.88-22.61 136.76-22.61L136.76-22.61 132.6-22.61ZM172.32-0.15L172.32-0.15 166.58 0.05Q165.27 0.1 164.25 0.22 163.24 0.34 162.53 0.49L162.53 0.49 162.38 0.24Q162.87-0.46 162.87-2.34L162.87-2.34 162.87-28.1Q162.87-29.76 162.73-30.86 162.58-31.96 162.18-32.6 161.77-33.25 161.08-33.51 160.38-33.76 159.58-33.76 158.77-33.76 158.58-33.74L158.58-33.74 158.48-34.45Q161.43-34.84 164.3-35.13 167.17-35.42 168.2-35.46 169.22-35.5 170.17-35.5L170.17-35.5Q172.83-35.5 174.9-35.17 176.96-34.84 178.36-34.08 179.77-33.33 180.5-32.12 181.23-30.91 181.23-29.15L181.23-29.15Q181.23-27.64 180.65-26.27 180.06-24.9 179.02-23.73 177.99-22.56 176.59-21.61 175.2-20.65 173.59-20L173.59-20 173.59-19.8Q175.5-19.56 177.31-18.95 179.13-18.33 180.55-17.25 181.96-16.16 182.82-14.56 183.67-12.96 183.67-10.74L183.67-10.74Q183.67-8.13 182.69-6.14 181.7-4.15 180.09-2.82 178.47-1.49 176.44-0.82 174.4-0.15 172.32-0.15ZM166.63-32.06L166.63-32.06 166.63-1.54 170.83-1.34Q174.88-1.15 177.36-3.31 179.84-5.47 179.84-9.91L179.84-9.91Q179.84-12.23 178.94-14.03 178.03-15.82 176.44-16.89 174.84-17.97 172.79-18.51 170.73-19.04 168.29-18.99L168.29-18.99 168.29-20.04Q170.61-20.09 172.66-21.04 174.71-22 176.09-23.94 177.47-25.88 177.47-28.44L177.47-28.44Q177.47-30.66 176.56-31.86 175.64-33.06 174.13-33.54 172.61-34.03 170.64-33.98 168.66-33.94 166.54-33.64L166.54-33.64Q166.51-33.64 166.49-33.64L166.49-33.64Q166.63-32.84 166.63-32.06ZM200.57-25.39L200.57-25.39Q206.18-25.39 209.38-21.95 212.58-18.51 212.58-12.35L212.58-12.35Q212.58-8.79 210.94-5.71 209.31-2.64 206.5-0.82 203.69 1 200.42 1L200.42 1Q194.78 1 191.59-2.4 188.41-5.81 188.41-12.06L188.41-12.06Q188.41-15.77 190.04-18.84 191.68-21.9 194.47-23.65 197.27-25.39 200.57-25.39ZM200.08-23.71L200.08-23.71Q198.15-23.71 196.73-23.14 195.32-22.58 194.46-21.63 193.61-20.68 193.1-19.21 192.58-17.75 192.4-16.21 192.22-14.67 192.22-12.65L192.22-12.65Q192.22-9.42 192.99-7.02 193.75-4.61 195.05-3.28 196.34-1.95 197.81-1.33 199.27-0.71 200.91-0.71L200.91-0.71Q202.81-0.71 204.24-1.31 205.67-1.9 206.52-2.87 207.38-3.83 207.89-5.31 208.4-6.79 208.59-8.3 208.77-9.81 208.77-11.74L208.77-11.74Q208.77-14.45 208.26-16.58 207.74-18.7 206.9-20.02 206.06-21.34 204.9-22.19 203.74-23.05 202.57-23.38 201.4-23.71 200.08-23.71ZM229.71-25.39L229.71-25.39Q235.33-25.39 238.53-21.95 241.73-18.51 241.73-12.35L241.73-12.35Q241.73-8.79 240.09-5.71 238.45-2.64 235.65-0.82 232.84 1 229.57 1L229.57 1Q223.93 1 220.74-2.4 217.56-5.81 217.56-12.06L217.56-12.06Q217.56-15.77 219.19-18.84 220.83-21.9 223.62-23.65 226.42-25.39 229.71-25.39ZM229.23-23.71L229.23-23.71Q227.3-23.71 225.88-23.14 224.46-22.58 223.61-21.63 222.76-20.68 222.24-19.21 221.73-17.75 221.55-16.21 221.36-14.67 221.36-12.65L221.36-12.65Q221.36-9.42 222.13-7.02 222.9-4.61 224.2-3.28 225.49-1.95 226.96-1.33 228.42-0.71 230.06-0.71L230.06-0.71Q231.96-0.71 233.39-1.31 234.82-1.9 235.67-2.87 236.53-3.83 237.04-5.31 237.55-6.79 237.73-8.3 237.92-9.81 237.92-11.74L237.92-11.74Q237.92-14.45 237.4-16.58 236.89-18.7 236.05-20.02 235.21-21.34 234.05-22.19 232.89-23.05 231.72-23.38 230.54-23.71 229.23-23.71ZM249.85-2.44L249.85-31.69Q249.85-35.16 249.04-36.34 248.22-37.52 245.56-37.35L245.56-37.35 245.46-37.79Q249.49-38.99 252.86-38.99L252.86-38.99Q253.37-37.72 253.37-36.21L253.37-36.21 253.37-4.39Q253.37-2.47 254.27-1.54 255.18-0.61 257.47-0.2L257.47-0.2 257.27 0.39Q254.47 0 252.76 0L252.76 0Q251.42 0 249.51 0.39L249.51 0.39 249.36 0.15Q249.85-0.56 249.85-2.44L249.85-2.44ZM264.35-1.15L264.35-1.15 255.32-13.04 255.32-13.6 264.35-22.71Q265.04-23.46 263.84-23.85L263.84-23.85Q262.77-24.22 260.77-24.05L260.77-24.05 260.62-24.66Q263.74-25.29 267.87-25.39L267.87-25.39 268.26-24.66 258.1-14.5Q267.58-2.61 268.68-1.82 269.77-1.03 271.41-0.66L271.41-0.66 271.36 0.1Q267.36-0.2 265.31 0.39L265.31 0.39 264.97 0.2Q265.01-0.34 264.35-1.15ZM277.56-2.44L277.56-18.09Q277.56-21.56 276.74-22.74 275.92-23.93 273.26-23.75L273.26-23.75 273.17-24.19Q277.19-25.39 280.56-25.39L280.56-25.39Q281.08-24.12 281.08-22.61L281.08-22.61 281.08-4.39Q281.08-2.47 281.98-1.54 282.88-0.61 285.18-0.2L285.18-0.2 284.98 0.39Q282.17 0 280.65 0 279.12 0 277.22 0.39L277.22 0.39 277.07 0.15Q277.56-0.56 277.56-2.44L277.56-2.44ZM275.07-34.45L275.07-34.45Q277.39-35.79 280.32-36.69L280.32-36.69Q280.32-34.67 280.98-32.69L280.98-32.69 280.66-32.25Q278.34-32.1 275.83-30.96L275.83-30.96Q275.22-32.64 275.07-34.45ZM292.06-2.44L292.06-18.09Q292.06-19.73 291.9-20.83 291.74-21.92 291.34-22.58 290.94-23.24 290.23-23.51 289.52-23.78 288.73-23.78 287.93-23.78 287.76-23.75L287.76-23.75 287.67-24.19Q291.64-25.39 295.06-25.39L295.06-25.39Q295.58-24.1 295.58-22.61L295.58-22.61 295.58-21.9Q296.99-22.85 298.19-23.56 299.38-24.27 300.54-24.76 301.7-25.24 302.92-25.49 304.14-25.73 305.61-25.73L305.61-25.73Q306.93-25.73 308.23-25.39 309.54-25.05 310.58-24.17 311.62-23.29 312.26-21.78 312.91-20.26 312.91-17.94L312.91-17.94 312.91-2.76Q312.91-2.17 313.19-1.78 313.47-1.39 313.92-1.12 314.37-0.85 314.96-0.67 315.55-0.49 316.18-0.29L316.18-0.29 315.96 0.29Q314.59 0 312.32 0L312.32 0Q310.93 0 309.08 0.39L309.08 0.39 308.93 0.15Q309.42-0.56 309.42-2.44L309.42-2.44 309.42-17.04Q309.42-19.09 309.03-20.4 308.64-21.7 307.97-22.45 307.29-23.19 306.4-23.49 305.51-23.78 304.51-23.78L304.51-23.78Q303.29-23.78 302.23-23.56 301.17-23.34 300.1-22.89 299.04-22.44 297.94-21.77 296.85-21.09 295.58-20.19L295.58-20.19 295.58-3.34Q295.58-2.56 295.7-2.09 295.82-1.61 296.21-1.29 296.6-0.98 297.31-0.73 298.02-0.49 299.16-0.2L299.16-0.2 298.97 0.39Q297.55 0.2 296.56 0.1 295.58 0 294.97 0L294.97 0Q293.57 0 291.72 0.39L291.72 0.39 291.57 0.15Q292.06-0.56 292.06-2.44L292.06-2.44ZM343.28 6.2L343.28 6.2Q343.28 8.64 341.46 10.53 339.64 12.43 336.76 13.39 333.88 14.36 330.53 14.36L330.53 14.36Q327.97 14.36 325.92 13.67 323.87 12.99 322.53 11.4 321.18 9.81 321.18 7.54L321.18 7.54Q321.18 5.18 323.26 3.15 325.33 1.12 328.73-0.29L328.73-0.29Q325.65-0.98 324.31-1.79 322.97-2.61 322.97-4.35L322.97-4.35Q322.97-5.88 323.92-6.82 324.87-7.76 327.16-8.35L327.16-8.35Q324.48-9.18 322.98-11.21 321.48-13.23 321.48-16.46L321.48-16.46Q321.48-18.8 322.86-20.87 324.24-22.95 326.49-24.17 328.75-25.39 331.22-25.39L331.22-25.39Q334.05-25.39 336.22-24.51L336.22-24.51 344.23-25.39 344.43-24.56 342.67-22.75 338.32-23.14Q340.84-20.9 340.84-16.65L340.84-16.65Q340.84-14.5 339.54-12.48 338.25-10.45 335.98-9.16 333.71-7.86 331.12-7.86L331.12-7.86Q327.6-7.25 326.62-6.79 325.63-6.32 325.63-5.3L325.63-5.3Q325.63-4.69 326.97-4.11 328.31-3.54 332.27-2.54L332.27-2.54Q334.07-2.1 335.32-1.75 336.56-1.39 337.81-0.94 339.05-0.49 339.85-0.02 340.64 0.44 341.36 1.06 342.08 1.68 342.46 2.43 342.84 3.17 343.06 4.1 343.28 5.03 343.28 6.2ZM332.02 0.34L332.02 0.34 331.02 0.1Q327.95 1.25 326.16 3.2 324.38 5.15 324.38 7.15L324.38 7.15Q324.38 8.57 325.15 9.66 325.92 10.74 327.21 11.35 328.51 11.96 329.97 12.26 331.44 12.55 333.02 12.55L333.02 12.55Q340.18 12.55 340.18 6.96L340.18 6.96Q340.18 4.25 338.14 2.73 336.1 1.22 332.02 0.34ZM330.22-23.66L330.22-23.66Q327.14-23.66 325.96-22.08 324.77-20.51 324.77-16.85L324.77-16.85Q324.77-15.14 325.32-13.81 325.87-12.48 326.7-11.71 327.53-10.94 328.64-10.44 329.75-9.94 330.72-9.77 331.68-9.59 332.63-9.59L332.63-9.59Q335.12-9.59 336.32-11.38 337.52-13.16 337.52-16.26L337.52-16.26Q337.52-18.04 336.97-19.42 336.42-20.8 335.62-21.57 334.83-22.34 333.78-22.84 332.73-23.34 331.88-23.5 331.02-23.66 330.22-23.66ZM360.14-0.49L375.06-33.84Q375.89-34.35 376.96-35.79L376.96-35.79 377.21-35.79 390.66-3.39Q391.56-1.22 394.35-0.34L394.35-0.34 394.35 0.1Q392.76-0.07 390.54 0.04 388.32 0.15 386.61 0.44L386.61 0.44 386.41 0.2Q386.9-0.44 386.64-1.93 386.39-3.42 385.14-6.45L385.14-6.45 381.11-16.55Q373.94-16.67 369.25-16.5L369.25-16.5 363.61-3.39Q363.1-2.27 363.99-1.51 364.88-0.76 367.49-0.24L367.49-0.24 367.39 0.2Q363.15-0.12 360.46 0L360.46 0Q360.31-0.15 360.14-0.49L360.14-0.49ZM375.4-30.69L369.91-17.94Q373.45-17.85 380.5-17.94L380.5-17.94 375.4-30.69ZM402.96 0.49L402.96 9.5Q402.96 11.45 403.87 12.37 404.77 13.28 407.06 13.7L407.06 13.7 406.87 14.31Q404.16 13.89 402.35 13.89L402.35 13.89Q400.96 13.89 399.11 14.31L399.11 14.31 398.96 14.04Q399.45 13.33 399.45 11.45L399.45 11.45 399.45-18.09Q399.45-21.56 398.63-22.74 397.81-23.93 395.15-23.75L395.15-23.75 395.05-24.19Q399.08-25.39 402.45-25.39L402.45-25.39Q402.96-24.12 402.96-22.61L402.96-22.61 402.96-21.19Q405.11-23.39 407.28-24.39 409.46-25.39 412.07-25.39L412.07-25.39Q414.27-25.39 416.11-24.38 417.95-23.36 419.15-21.7 420.35-20.04 421-17.96 421.66-15.87 421.66-13.65L421.66-13.65Q421.66-7.06 418.19-3.03 414.71 1 408.21 1L408.21 1Q405.26 1 402.96 0.49L402.96 0.49ZM402.96-19.24L402.96-19.24 402.96-2.29Q404.11-1.66 406.06-1.26 408.02-0.85 409.97-0.85L409.97-0.85Q411.87-0.85 413.28-1.43 414.68-2 415.54-2.97 416.39-3.93 416.92-5.44 417.44-6.96 417.62-8.58 417.81-10.21 417.81-12.35L417.81-12.35Q417.81-17.92 415.93-20.79 414.05-23.66 410.95-23.66L410.95-23.66Q409.02-23.66 406.93-22.52 404.84-21.39 402.96-19.24ZM433.31 0.49L433.31 9.5Q433.31 11.45 434.21 12.37 435.11 13.28 437.41 13.7L437.41 13.7 437.21 14.31Q434.5 13.89 432.7 13.89L432.7 13.89Q431.31 13.89 429.45 14.31L429.45 14.31 429.3 14.04Q429.79 13.33 429.79 11.45L429.79 11.45 429.79-18.09Q429.79-21.56 428.97-22.74 428.16-23.93 425.49-23.75L425.49-23.75 425.4-24.19Q429.43-25.39 432.79-25.39L432.79-25.39Q433.31-24.12 433.31-22.61L433.31-22.61 433.31-21.19Q435.46-23.39 437.63-24.39 439.8-25.39 442.41-25.39L442.41-25.39Q444.61-25.39 446.45-24.38 448.3-23.36 449.49-21.7 450.69-20.04 451.35-17.96 452.01-15.87 452.01-13.65L452.01-13.65Q452.01-7.06 448.53-3.03 445.05 1 438.56 1L438.56 1Q435.6 1 433.31 0.49L433.31 0.49ZM433.31-19.24L433.31-19.24 433.31-2.29Q434.45-1.66 436.41-1.26 438.36-0.85 440.31-0.85L440.31-0.85Q442.22-0.85 443.62-1.43 445.03-2 445.88-2.97 446.73-3.93 447.26-5.44 447.78-6.96 447.97-8.58 448.15-10.21 448.15-12.35L448.15-12.35Q448.15-17.92 446.27-20.79 444.39-23.66 441.29-23.66L441.29-23.66Q439.36-23.66 437.27-22.52 435.19-21.39 433.31-19.24Z" opacity="1" transform="matrix(1,0,0,1,0,0)" fill="#0074d9" class="slogan-text-1" data-fill-palette-color="secondary" id="text-1"></path></svg></g></svg></g></svg></g></svg></g><g><svg viewBox="0 0 128.39367001105143 128.39367001105143" height="128.39367001105143" width="128.39367001105143"><g><svg xmlns="http://www.w3.org/2000/svg" xmlns:xlink="http://www.w3.org/1999/xlink" version="1.1" x="0" y="0" viewBox="0 0 100 100" enable-background="new 0 0 100 100" xml:space="preserve" height="128.39367001105143" width="128.39367001105143" class="icon-icon-0" data-fill-palette-color="accent" id="icon-0"><g fill="#8dbdff" data-fill-palette-color="accent"><path d="M56.357 27.865l-3.593 3.592 5.233 5.232 3.592-3.592L56.357 27.865zM66.852 38.361l-3.591 3.591 5.232 5.232 3.592-3.592L66.852 38.361zM63.429 0l10.937 10.936c-3.548 4.094-3.376 10.294 0.515 14.185 3.89 3.89 10.09 4.061 14.185 0.514L100 36.571 82.532 54.04l-5.184-5.185-3.593 3.592 5.184 5.184L36.571 100 25.538 88.966c2.823-4.062 2.425-9.687-1.195-13.306-3.624-3.623-9.247-4.021-13.309-1.197L0 63.429l42.369-42.368 5.134 5.134 3.591-3.592-5.134-5.134L63.429 0z" fill="#8dbdff" data-fill-palette-color="accent"></path></g></svg></g></svg></g></svg></g><defs></defs></svg><rect width="395.5199999999999" height="91.71574494710676" fill="none" stroke="none" visibility="hidden"></rect></g></svg></g></svg>